<svg width="16" height="16" viewBox="0 0 16 16" fill="none" xmlns="http://www.w3.org/2000/svg">
<path fill-rule="evenodd" clip-rule="evenodd" d="M2.07476 8.00008C2.12944 8.10492 2.20164 8.23676 2.29182 8.38826C2.53448 8.79594 2.90316 9.33891 3.4054 9.87978C4.41027 10.962 5.9123 12.0001 8.00021 12.0001C10.0881 12.0001 11.5901 10.962 12.595 9.87978C13.0972 9.33891 13.4659 8.79594 13.7086 8.38826C13.7988 8.23676 13.871 8.10492 13.9256 8.00008C13.871 7.89524 13.7988 7.7634 13.7086 7.6119C13.4659 7.20423 13.0972 6.66125 12.595 6.12038C11.5901 5.03821 10.0881 4.00008 8.00021 4.00008C5.9123 4.00008 4.41027 5.03821 3.4054 6.12038C2.90316 6.66125 2.53448 7.20423 2.29182 7.6119C2.20164 7.7634 2.12944 7.89524 2.07476 8.00008ZM14.6669 8.00008C15.2796 7.73747 15.2795 7.7372 15.2794 7.73691L15.2784 7.73458L15.2764 7.73L15.2701 7.7158C15.265 7.70415 15.2578 7.68816 15.2485 7.66812C15.23 7.62804 15.2032 7.5717 15.1681 7.50142C15.0979 7.36096 14.9938 7.16422 14.8543 6.92993C14.5762 6.4626 14.1532 5.83891 13.5721 5.21311C12.4103 3.96195 10.579 2.66675 8.00021 2.66675C5.42144 2.66675 3.59014 3.96195 2.42834 5.21311C1.84725 5.83891 1.42426 6.4626 1.14609 6.92993C1.00663 7.16422 0.902536 7.36096 0.832306 7.50142C0.797166 7.5717 0.77043 7.62804 0.751917 7.66812C0.742659 7.68816 0.73545 7.70415 0.730269 7.7158L0.724012 7.73L0.722018 7.73458L0.721303 7.73624L0.721016 7.73691C0.720892 7.7372 0.720776 7.73747 1.33354 8.00008L0.721016 7.73691C0.649145 7.90461 0.648905 8.09499 0.720776 8.26269L1.33354 8.00008C0.720776 8.26269 0.720652 8.2624 0.720776 8.26269L0.721303 8.26392L0.722018 8.26558L0.724012 8.27017L0.730269 8.28436C0.73545 8.29601 0.742659 8.312 0.751917 8.33205C0.77043 8.37212 0.797166 8.42846 0.832306 8.49874C0.902536 8.6392 1.00663 8.83594 1.14609 9.07024C1.42426 9.53756 1.84725 10.1613 2.42834 10.787C3.59014 12.0382 5.42144 13.3334 8.00021 13.3334C10.579 13.3334 12.4103 12.0382 13.5721 10.787C14.1532 10.1613 14.5762 9.53756 14.8543 9.07024C14.9938 8.83594 15.0979 8.6392 15.1681 8.49874C15.2032 8.42846 15.23 8.37212 15.2485 8.33205C15.2578 8.312 15.265 8.29601 15.2701 8.28436L15.2764 8.27017L15.2784 8.26558L15.2794 8.26325C15.2795 8.26296 15.2796 8.26269 14.6669 8.00008ZM14.6669 8.00008L15.2794 8.26325C15.3513 8.09555 15.3513 7.90461 15.2794 7.73691L14.6669 8.00008Z" fill="#A3A3A3"/>
<path fill-rule="evenodd" clip-rule="evenodd" d="M8.00016 6.66674C7.26378 6.66674 6.66683 7.26369 6.66683 8.00007C6.66683 8.73645 7.26378 9.3334 8.00016 9.3334C8.73654 9.3334 9.3335 8.73645 9.3335 8.00007C9.3335 7.26369 8.73654 6.66674 8.00016 6.66674ZM5.3335 8.00007C5.3335 6.52731 6.5274 5.3334 8.00016 5.3334C9.47292 5.3334 10.6668 6.52731 10.6668 8.00007C10.6668 9.47283 9.47292 10.6667 8.00016 10.6667C6.5274 10.6667 5.3335 9.47283 5.3335 8.00007Z" fill="#A3A3A3"/>
</svg>
