<svg width="13" height="13" viewBox="0 0 13 13" fill="none" xmlns="http://www.w3.org/2000/svg">
<path fill-rule="evenodd" clip-rule="evenodd" d="M11.0213 10.0785C11.8424 9.05202 12.3334 7.75002 12.3334 6.33334C12.3334 3.01963 9.64708 0.333344 6.33337 0.333344C3.01967 0.333344 0.333374 3.01963 0.333374 6.33334C0.333374 9.64705 3.01967 12.3333 6.33337 12.3333C7.75005 12.3333 9.05205 11.8424 10.0785 11.0213L11.862 12.8047C12.1223 13.0651 12.5444 13.0651 12.8048 12.8047C13.0651 12.5444 13.0651 12.1223 12.8048 11.8619L11.0213 10.0785ZM11 6.33334C11 8.91067 8.9107 11 6.33337 11C3.75605 11 1.66671 8.91067 1.66671 6.33334C1.66671 3.75601 3.75605 1.66668 6.33337 1.66668C8.9107 1.66668 11 3.75601 11 6.33334Z" fill="#A3A3A3"/>
</svg>
